USFL
nRows=109
nColumns=2
inDegrees=yes
endheader
time	med_gas_r	
3.6502	 48.868000	
3.72177	 48.862367	
3.79335	 48.834684	
3.86492	 48.849765	
3.93649	 48.841792	
4.00806	 48.818898	
4.07964	 48.775837	
4.15121	 48.759854	
4.22278	 48.755549	
4.29435	 48.699297	
4.36593	 48.602418	
4.4375	 48.677267	
4.50907	 48.690000	
4.58065	 48.685196	
4.65222	 48.642682	
4.72379	 48.595480	
4.79536	 48.488279	
4.86694	 48.525333	
4.93851	 48.581370	
5.01008	 48.528080	
5.08165	 48.504025	
5.15323	 48.536525	
5.2248	 46.913703	
5.29637	 46.998209	
5.36794	 47.053534	
5.43952	 47.417770	
5.51109	 46.277649	
5.58266	 46.549656	
5.65423	 46.668207	
5.72581	 46.642451	
5.79738	 45.535300	
5.86895	 45.460904	
5.94052	 45.688217	
6.0121	 40.366444	
6.08367	 40.467239	
6.15524	 38.541525	
6.22681	 38.510969	
6.29839	 38.367007	
6.36996	 34.505344	
6.44153	 30.954206	
6.5131	 29.291090	
6.58468	 29.422993	
6.65625	 29.234375	
6.72782	 29.082887	
6.7994	 28.988890	
6.87097	 28.886851	
6.94254	 28.746265	
7.01411	 28.594828	
7.08569	 28.551366	
7.15726	 28.527813	
7.22883	 28.505007	
7.3004	 28.386682	
7.37198	 28.276893	
7.44355	 28.302912	
7.51512	 28.218596	
7.58669	 28.132158	
7.65827	 28.111369	
7.72984	 28.099503	
7.80141	 28.056412	
7.87298	 28.096349	
7.94456	 28.106071	
8.01613	 28.078941	
8.0877	 28.128518	
8.15927	 28.141883	
8.23085	 28.184203	
8.30242	 28.185486	
8.37399	 28.158005	
8.44556	 28.206273	
8.51714	 28.203663	
8.58871	 28.148520	
8.66028	 28.092780	
8.73185	 28.081575	
8.80343	 28.051038	
8.875	 28.055756	
8.94657	 28.035397	
9.01815	 28.040023	
9.08972	 28.078769	
9.16129	 28.038650	
9.23286	 28.035556	
9.30444	 28.027278	
9.37601	 28.050483	
9.44758	 28.062236	
9.51915	 28.053184	
9.59073	 28.090785	
9.6623	 28.083661	
9.73387	 28.073942	
9.80544	 28.081278	
9.87702	 28.025031	
9.94859	 28.038350	
10.0202	 28.013981	
10.0917	 27.974783	
10.1633	 27.907396	
10.2349	 27.896489	
10.3065	 27.956014	
10.378	 27.990688	
10.4496	 28.041343	
10.5212	 28.032852	
10.5927	 28.069494	
10.6643	 28.068735	
10.7359	 28.134922	
10.8075	 28.284623	
10.879	 28.405432	
10.9506	 28.538606	
11.0222	 28.574613	
11.0937	 28.667219	
11.1653	 28.830958	
11.2369	 28.944447	
11.3085	 28.893202	
11.38	 31.186671	
